<?xml version="1.0" encoding="utf-8"?>
<!DOCTYPE svg PUBLIC "-//W3C//DTD SVG 1.0//EN" "http://www.w3.org/TR/2001/REC-SVG-20010904/DTD/svg10.dtd">
<svg version="1.0" xmlns="http://www.w3.org/2000/svg" width="318px" height="318px" viewBox="0 0 318 318" preserveAspectRatio="xMidYMid meet">
 <g fill="#074090">
  <path d="M43.65 289.30 c-4.75 -3.05 -12.60 -8.15 -17.50 -11.30 -4.85 -3.15 -10.30 -6.65 -12.10 -7.75 -1.85 -1.15 -5.45 -3.45 -8.05 -5.20 l-4.75 -3.15 3.25 0.30 c1.80 0.15 6.20 0.55 9.75 0.85 4.60 0.40 11.95 0.45 25 0.15 29 -0.70 50.25 -0.50 58.50 0.50 14.60 1.75 24.70 4.50 34.20 9.30 8.75 4.40 14.85 9.30 19.55 15.65 1.65 2.25 3.25 4.40 3.55 4.75 0.25 0.35 0.35 0.85 0.20 1.10 -0.20 0.35 -18.35 0.50 -51.65 0.45 l-51.35 -0.05 -8.60 -5.60z"/>
  <path d="M164.85 294.70 c-0.60 -0.65 4.80 -7.70 8.80 -11.55 11.30 -10.80 26.25 -16.80 48.60 -19.50 8.25 -0.95 30.20 -1.15 60 -0.45 16.20 0.35 20.10 0.30 26.60 -0.40 4.20 -0.45 7.95 -0.95 8.35 -1.10 0.50 -0.20 0.80 -0.05 0.75 0.35 0 0.65 -4.55 3.65 -26.70 17.70 -4.40 2.80 -11.45 7.35 -15.70 10.15 l-7.75 5.10 -51.30 0 c-28.25 0 -51.50 -0.15 -51.65 -0.30z"/>
  <path d="M150.70 271.95 c-0.50 -0.60 -2.95 -2.40 -5.40 -4.05 -12.30 -8.20 -25.95 -12.85 -44.55 -15.10 -10.10 -1.25 -33.30 -1.80 -53.50 -1.30 -13.40 0.30 -18.20 0.25 -18.75 -0.15 -2.95 -2.25 -14.95 -12.40 -15.25 -12.80 -0.60 -1 68.65 -1.05 80.25 -0.05 29.85 2.50 45.90 11.30 57.70 31.60 1.40 2.45 1.10 3.60 -0.50 1.85z"/>
  <path d="M169 272.15 c0 -1.20 5.25 -9.10 8.60 -12.90 7.70 -8.80 17.45 -14.40 30.90 -17.75 13.50 -3.35 26.50 -4.05 69.10 -3.65 26.80 0.30 30.30 0.40 29.75 1.05 -0.75 0.90 -11.25 9.80 -13.75 11.70 l-1.85 1.35 -17.50 -0.45 c-17.90 -0.50 -42.10 0 -51.70 1.05 -21.40 2.30 -39.05 8.75 -51.40 18.80 -1.80 1.45 -2.15 1.55 -2.15 0.80z"/>
  <path d="M137 242.20 c-16.10 -9.05 -35.25 -13.40 -61.85 -14.05 -6.65 -0.15 -12.25 -0.45 -12.50 -0.60 -0.25 -0.15 -2.95 -6.95 -6.05 -15.05 -3.05 -8.10 -5.85 -15.45 -6.15 -16.35 -0.35 -0.90 -0.55 -1.75 -0.40 -1.90 0.35 -0.30 8.30 0.45 15.70 1.50 15.50 2.20 31.40 7.15 42.20 13.05 7.25 4 20.30 15.65 26.80 23.95 2.90 3.75 8.75 12.10 8.75 12.55 0 0.50 -1.10 -0.05 -6.50 -3.10z"/>
  <path d="M177.50 245 c0 -0.80 5.75 -9.20 8.85 -12.90 6.30 -7.60 16 -16.60 22.85 -21.25 5.95 -4.05 18.85 -9.20 30.10 -12.05 9.80 -2.50 29.85 -5.35 30.80 -4.40 0.40 0.40 -11.10 31.65 -12.15 32.95 -0.45 0.50 -2.50 0.65 -8.40 0.65 -27.30 0 -51.30 5.35 -67.50 15 -4.65 2.75 -4.55 2.70 -4.55 2z"/>
  <path d="M151.65 234.20 c-0.50 -0.25 -0.65 -5.95 -0.65 -26.25 l0 -25.95 9 0 9 0 0 26 0 26 -7.35 0 c-4.10 0 -7.85 0.10 -8.40 0.25 -0.55 0.10 -1.30 0.10 -1.60 -0.05z"/>
  <path d="M140.40 219.20 c-0.70 -1.05 -3.55 -4.45 -6.30 -7.50 l-4.95 -5.60 0.05 -11.90 0.05 -11.95 6.30 -0.15 6.30 -0.15 0.35 1.60 c0.40 2.10 0.30 34.85 -0.15 36.40 -0.30 1.15 -0.35 1.15 -1.65 -0.75z"/>
  <path d="M177.60 206.20 c-0.10 -7.55 -0.05 -16.15 0.15 -19 l0.35 -5.25 6.35 0.15 6.30 0.15 0 12.10 0 12.05 -3.10 3.20 c-1.70 1.70 -4.40 4.80 -5.95 6.80 -1.55 1.95 -3.10 3.60 -3.40 3.60 -0.40 0 -0.60 -4.25 -0.70 -13.80z"/>
  <path d="M150 127.80 c0 -0.65 8.70 -20.20 9.65 -21.65 0.65 -1.05 1.15 -0.75 1.70 0.95 0.30 0.90 2.45 5.90 4.85 11.10 2.35 5.20 4.15 9.65 4 9.90 -0.15 0.20 -4.75 0.40 -10.25 0.40 -8.20 0 -9.95 -0.10 -9.95 -0.70z"/>
 </g>
 <g fill="#f7a725">
  <path d="M147 283.75 c-1.20 -1.25 -2.10 -2.25 -1.95 -2.25 0.15 0 1.25 1 2.45 2.25 1.20 1.25 2.10 2.25 1.95 2.25 -0.15 0 -1.25 -1 -2.45 -2.25z"/>
  <path d="M45.65 263.15 c0.75 -0.10 1.85 -0.10 2.50 0 0.60 0.10 0 0.20 -1.40 0.20 -1.35 0 -1.90 -0.10 -1.10 -0.20z"/>
  <path d="M59.15 262.65 c0.75 -0.10 1.85 -0.10 2.50 0 0.60 0.10 0 0.20 -1.40 0.20 -1.35 0 -1.90 -0.10 -1.10 -0.20z"/>
  <path d="M235.40 262.65 c0.60 -0.10 1.50 -0.10 2 0 0.45 0.15 -0.05 0.25 -1.15 0.20 -1.10 0 -1.50 -0.10 -0.85 -0.20z"/>
  <path d="M141.25 256.90 l-2 -2.15 2.15 2 c1.95 1.80 2.35 2.25 1.95 2.25 -0.10 0 -1.05 -0.95 -2.10 -2.10z"/>
  <path d="M88.15 251.65 c0.45 -0.10 1.25 -0.10 1.75 0 0.45 0.15 0.05 0.25 -0.90 0.25 -0.95 0 -1.35 -0.10 -0.85 -0.25z"/>
  <path d="M286.40 251.65 c0.60 -0.10 1.50 -0.10 2 0 0.45 0.15 -0.05 0.25 -1.15 0.20 -1.10 0 -1.50 -0.10 -0.85 -0.20z"/>
  <path d="M72.65 251.15 c1.30 -0.10 3.40 -0.10 4.75 0 1.30 0.10 0.20 0.15 -2.40 0.15 -2.60 0 -3.70 -0.05 -2.35 -0.15z"/>
  <path d="M266.15 251.15 c1.30 -0.10 3.40 -0.10 4.75 0 1.30 0.10 0.20 0.15 -2.40 0.15 -2.60 0 -3.70 -0.05 -2.35 -0.15z"/>
  <path d="M63.40 237.65 c2.80 -0.10 7.40 -0.10 10.25 0 2.80 0.05 0.50 0.15 -5.15 0.15 -5.65 0 -7.95 -0.10 -5.10 -0.15z"/>
  <path d="M248.90 237.65 c2.80 -0.10 7.40 -0.10 10.25 0 2.80 0.05 0.50 0.15 -5.15 0.15 -5.65 0 -7.95 -0.10 -5.10 -0.15z"/>
  <path d="M65.40 227.65 c1.40 -0.10 3.80 -0.10 5.25 0 1.40 0.10 0.25 0.15 -2.65 0.15 -2.90 0 -4.05 -0.05 -2.60 -0.15z"/>
  <path d="M142.25 201.50 c0 -9.75 0.05 -13.75 0.10 -8.90 0.10 4.90 0.10 12.90 0 17.75 -0.05 4.90 -0.10 0.90 -0.10 -8.85z"/>
  <path d="M177.70 199.75 c0 -6.85 0.10 -9.75 0.15 -6.40 0.10 3.35 0.10 8.95 0 12.50 -0.05 3.50 -0.15 0.80 -0.15 -6.10z"/>
  <path d="M190.70 194 c0 -6.45 0.10 -9.10 0.15 -5.85 0.10 3.20 0.10 8.50 0 11.75 -0.05 3.20 -0.15 0.55 -0.15 -5.90z"/>
  <path d="M129.20 198 c0 -2.60 0.05 -3.70 0.15 -2.35 0.10 1.30 0.10 3.40 0 4.75 -0.10 1.30 -0.15 0.20 -0.15 -2.40z"/>
  <path d="M270 195.10 c0 -0.35 -0.60 -0.65 -1.35 -0.65 -1.30 -0.10 -1.30 -0.10 -0.20 -0.30 1.20 -0.25 2.50 0.55 1.90 1.20 -0.20 0.15 -0.35 0.05 -0.35 -0.25z"/>
  <path d="M129.15 188 c0 -1.80 0.10 -2.50 0.20 -1.60 0.10 0.85 0.10 2.35 0 3.25 -0.10 0.85 -0.20 0.15 -0.20 -1.65z"/>
  <path d="M81.15 188 c-1.70 -0.50 -6.20 -1.40 -10 -2.05 -4.20 -0.70 -7.20 -1.45 -7.75 -1.90 -1.60 -1.55 -2.40 -17.35 -1.40 -27.55 2 -20.25 10.80 -40.05 24.65 -55.40 15.60 -17.35 36.40 -28.50 59.35 -31.90 10.60 -1.55 27.65 -0.80 36.75 1.60 10.55 2.75 11.60 3.15 19.50 6.90 10.30 4.95 21.40 12.85 28.50 20.35 10.90 11.45 18.20 23.55 22.95 38 4 12.10 5.60 27.30 4.35 40.90 -0.60 6.75 -1.20 8.05 -3.50 8.05 -1.70 0 -12.05 1.80 -15.70 2.75 -4.45 1.15 -4.55 1.10 -4.20 -1.35 0.20 -1.20 0.65 -3.70 1.05 -5.65 1.15 -5.10 1.55 -16.55 0.85 -22.60 -1.60 -13.65 -6.75 -26.65 -14.85 -37.50 -10.60 -14.15 -27.20 -24.90 -44.90 -29.05 -5.05 -1.15 -6.55 -1.30 -16.30 -1.30 -8.60 -0.05 -11.65 0.15 -15.25 0.90 -21.70 4.45 -41.55 18.95 -52.40 38.25 -4.60 8.20 -8.10 18.85 -9.35 28.55 -1 7.75 -0.25 19.65 1.70 27 0.50 1.90 0.55 2.95 0.20 3.35 -0.60 0.75 -0.30 0.80 -4.25 -0.35z"/>
  <path d="M15.65 175.75 c-1.85 -1.30 -3.15 -3.95 -3.15 -6.45 0 -2.05 0.25 -2.60 1.95 -4.45 l2 -2.10 15.55 -0.15 15.60 -0.15 1.75 1.35 c4 3.05 4.15 8.65 0.35 11.65 -1.30 1 -1.85 1.05 -17.15 1.05 -13.25 0 -16 -0.10 -16.90 -0.75z"/>
  <path d="M271.25 175.95 c-0.55 -0.30 -1.60 -1.35 -2.35 -2.30 -2.50 -3.25 -1.50 -7.90 2.20 -10.15 1.55 -0.95 2.55 -1 16.85 -1 l15.20 0 2.15 2.20 c2 1.95 2.20 2.40 2.20 4.55 0 1.55 -0.35 3 -1.05 4.05 -2 3.25 -1.60 3.20 -18.70 3.15 -9.30 0 -15.90 -0.20 -16.50 -0.50z"/>
  <path d="M186.15 171.60 c-1.80 -0.30 -1.20 0.95 -9.90 -20.35 -2 -4.95 -4.25 -10.30 -4.95 -11.90 -1.55 -3.45 -1.60 -4.15 -0.35 -4.85 1.70 -0.90 3.30 1.25 6.20 8.25 1.50 3.60 3.55 8.30 4.60 10.50 3.25 7.10 6.75 15.85 6.75 17 0 1.25 -0.65 1.65 -2.35 1.35z"/>
  <path d="M131.50 170.45 c0 -1.35 12.35 -30.15 14.90 -34.80 0.60 -1.10 0.85 -1.15 8.50 -1.15 5.60 0 8.15 0.20 8.70 0.65 0.45 0.30 2.85 5.80 5.40 12.10 2.55 6.35 5.70 14.10 7.10 17.20 1.35 3.15 2.30 6.05 2.20 6.40 -0.20 0.50 -4.90 0.65 -23.55 0.65 l-23.25 0 0 -1.05z"/>
  <path d="M74.70 94.05 c-1.05 -0.75 -6.15 -5.65 -11.25 -10.85 -8.30 -8.45 -9.35 -9.70 -9.70 -11.55 -0.45 -2.85 1.05 -6.25 3.35 -7.45 2.10 -1.10 5.55 -1.05 7.25 0.10 1.85 1.15 9.60 8.75 16.15 15.80 5.35 5.75 5.50 5.95 5.50 8.20 0 6.15 -6.40 9.40 -11.30 5.75z"/>
  <path d="M236.05 93.25 c-1.80 -1.95 -2.05 -2.50 -2.05 -4.65 0 -1.70 0.30 -2.85 1.15 -3.95 0.60 -0.80 5.50 -5.80 10.85 -11.10 10.65 -10.45 11.65 -11.10 15.40 -10.10 2.35 0.65 4.40 2.90 4.90 5.40 0.65 3.35 -0.45 4.90 -10.75 15.30 -5.40 5.45 -10.40 10.25 -11.15 10.65 -0.75 0.40 -2.45 0.70 -3.80 0.70 -2.30 0 -2.65 -0.15 -4.55 -2.25z"/>
  <path d="M155.55 60.55 c-0.85 -0.80 -1.75 -2.05 -2.05 -2.75 -0.30 -0.85 -0.50 -7.35 -0.50 -16.25 l0 -14.90 1.90 -2.15 c1.55 -1.75 2.25 -2.15 4.15 -2.35 2.70 -0.30 4.70 0.55 6.65 2.85 l1.30 1.60 0 14.95 c0 16.65 -0.15 17.65 -3.10 19.45 -1.10 0.65 -2.55 1 -4.20 1 -2.15 0 -2.85 -0.25 -4.15 -1.45z"/>
 </g>
</svg>